<svg width="73" height="73" viewBox="0 0 73 73" fill="none" xmlns="http://www.w3.org/2000/svg">
<path fill-rule="evenodd" clip-rule="evenodd" d="M9.125 12.4432C9.125 15.2437 10.0508 17.8286 11.6136 19.9091H5.80682C4.26675 19.9091 2.78977 20.5209 1.70078 21.6099C0.611786 22.6989 0 24.1758 0 25.7159V34.0114C0 36.3275 1.35714 38.325 3.31818 39.2607V67.1932C3.31818 70.3985 5.91964 73 9.125 73H63.875C65.415 73 66.8919 72.3881 67.9809 71.2991C69.0699 70.2101 69.6818 68.7331 69.6818 67.1932V39.2607C71.6429 38.3283 73 36.3275 73 34.0114V25.7159C73 24.1758 72.3881 22.6989 71.2991 21.6099C70.2101 20.5209 68.7331 19.9091 67.1932 19.9091H61.3864C62.773 18.0604 63.6172 15.8622 63.8246 13.5606C64.0323 11.2592 63.5946 8.94532 62.5613 6.87842C61.528 4.81153 59.9393 3.07326 57.9736 1.85838C56.0079 0.643495 53.7426 0 51.4318 0C46.6005 0 40.0305 2.98968 36.5 10.3195C32.9695 2.98968 26.3961 0 21.5682 0C18.2681 0 15.1031 1.31097 12.7695 3.64453C10.436 5.97807 9.125 9.14305 9.125 12.4432ZM33.9118 19.9091C32.9595 8.31868 25.3841 4.97727 21.5682 4.97727C19.5881 4.97727 17.6891 5.76385 16.289 7.16399C14.8888 8.56413 14.1023 10.4631 14.1023 12.4432C14.1023 14.4233 14.8888 16.3222 16.289 17.7224C17.6891 19.1225 19.5881 19.9091 21.5682 19.9091H33.9118ZM64.7045 39.8182V67.1932C64.7045 67.4132 64.6173 67.6242 64.4617 67.7798C64.306 67.9355 64.095 68.0227 63.875 68.0227H38.9886V39.8182H64.7045ZM34.0114 68.0227V39.8182H8.29545V67.1932C8.29545 67.6511 8.66709 68.0227 9.125 68.0227H34.0114ZM67.1932 34.8409C67.4132 34.8409 67.6242 34.7536 67.7798 34.598C67.9355 34.4424 68.0227 34.2314 68.0227 34.0114V25.7159C68.0227 25.4959 67.9355 25.2849 67.7798 25.1293C67.6242 24.9738 67.4132 24.8864 67.1932 24.8864H38.9886V34.8409H67.1932ZM5.80682 34.8409H34.0114V24.8864H5.80682C5.58682 24.8864 5.37582 24.9738 5.22023 25.1293C5.06467 25.2849 4.97727 25.4959 4.97727 25.7159V34.0114C4.97727 34.4693 5.34891 34.8409 5.80682 34.8409ZM58.8977 12.4432C58.8977 14.4233 58.111 16.3222 56.711 17.7224C55.3108 19.1225 53.4118 19.9091 51.4318 19.9091H39.0882C40.0405 8.31868 47.6159 4.97727 51.4318 4.97727C53.4118 4.97727 55.3108 5.76385 56.711 7.16399C58.111 8.56413 58.8977 10.4631 58.8977 12.4432Z" fill="#007A8A"/>
</svg>
